<?xml version="1.0" standalone="no"?><!DOCTYPE svg PUBLIC "-//W3C//DTD SVG 1.1//EN" "http://www.w3.org/Graphics/SVG/1.1/DTD/svg11.dtd"><svg t="1741591552113" class="icon" viewBox="0 0 1024 1024" version="1.1" xmlns="http://www.w3.org/2000/svg" p-id="5092" xmlns:xlink="http://www.w3.org/1999/xlink" width="200" height="200"><path d="M407.4 724.6c0 48.6-39.4 88-88 88s-88-39.4-88-88 39.4-88 88-88 88 39.4 88 88z" p-id="5093"></path><path d="M407.4 724.6c0 48.6-39.4 88-88 88s-88-39.4-88-88 39.4-88 88-88 88 39.4 88 88z" p-id="5094"></path><path d="M407.4 724.6c0 48.6-39.4 88-88 88s-88-39.4-88-88 39.4-88 88-88 88 39.4 88 88z" p-id="5095"></path><path d="M407.4 724.6c0 48.6-39.4 88-88 88s-88-39.4-88-88 39.4-88 88-88 88 39.4 88 88z" p-id="5096"></path><path d="M319.4 636.6c-48.6 0-88 39.4-88 88s39.4 88 88 88 88-39.4 88-88-39.4-88-88-88z m0 0c-48.6 0-88 39.4-88 88s39.4 88 88 88 88-39.4 88-88-39.4-88-88-88z m0 0c-48.6 0-88 39.4-88 88s39.4 88 88 88 88-39.4 88-88-39.4-88-88-88z m0 0c-48.6 0-88 39.4-88 88s39.4 88 88 88 88-39.4 88-88-39.4-88-88-88zM814.2 60.8h-40.8v1.8c-0.5 25.2-10.9 48-27.5 64.6-17 17-40.5 27.5-66.5 27.5H343.7c-51.3 0-93-41.1-94-92.2v-1.8h-40.8c-76.2 0-138 61.8-138 138V886c0 76.2 61.8 138 138 138h605.3c76.2 0 138-61.8 138-138V198.8c-0.1-76.2-61.8-138-138-138zM318.8 873.2c-81.7 0-148-66.3-148-148s66.3-148 148-148 148 66.3 148 148-66.3 148-148 148z m161.1-579L334.2 439.9c-6.1 6.1-14.2 9.1-22.3 9.1-8.1 0-16.1-3-22.3-9.1L185.7 336c-12.1-12.1-12.1-32 0-44.1 12.1-12.1 32-12.1 44.1 0l81.9 81.9L435.5 250c12.1-12.1 32-12.1 44.1 0 12.5 12.1 12.5 31.9 0.3 44.2z m367 528.3c-3.1 4.1-7.4 6.6-12.1 6.6H594.4c-9.4 0-17-10-17-22.4 0-6.2 1.9-11.8 5-15.8s7.3-6.5 12.1-6.5h240.4c9.4 0 17.1 10 17.1 22.4-0.1 6.1-2 11.7-5.1 15.7z m0-140.6c-3.1 4.1-7.4 6.6-12.1 6.6H594.4c-9.4 0-17-10-17-22.4 0-6.2 1.9-11.8 5-15.8s7.3-6.5 12.1-6.5h240.4c9.4 0 17.1 10 17.1 22.4-0.1 6-2 11.6-5.1 15.7z m0-307c-3.1 4.1-7.4 6.6-12.1 6.6H594.4c-9.4 0-17-10-17-22.4 0-6.2 1.9-11.8 5-15.8s7.3-6.5 12.1-6.5h240.4c9.4 0 17.1 10 17.1 22.4-0.1 6.1-2 11.7-5.1 15.7zM319.4 636.6c-48.6 0-88 39.4-88 88s39.4 88 88 88 88-39.4 88-88-39.4-88-88-88z m0 0c-48.6 0-88 39.4-88 88s39.4 88 88 88 88-39.4 88-88-39.4-88-88-88z m0 0c-48.6 0-88 39.4-88 88s39.4 88 88 88 88-39.4 88-88-39.4-88-88-88z m0 0c-48.6 0-88 39.4-88 88s39.4 88 88 88 88-39.4 88-88-39.4-88-88-88z m0 0c-48.6 0-88 39.4-88 88s39.4 88 88 88 88-39.4 88-88-39.4-88-88-88z" p-id="5097"></path><path d="M407.4 724.6c0 48.6-39.4 88-88 88s-88-39.4-88-88 39.4-88 88-88 88 39.4 88 88z" p-id="5098"></path><path d="M407.4 724.6c0 48.6-39.4 88-88 88s-88-39.4-88-88 39.4-88 88-88 88 39.4 88 88z" p-id="5099"></path><path d="M407.4 724.6c0 48.6-39.4 88-88 88s-88-39.4-88-88 39.4-88 88-88 88 39.4 88 88z" p-id="5100"></path><path d="M407.4 724.6c0 48.6-39.4 88-88 88s-88-39.4-88-88 39.4-88 88-88 88 39.4 88 88z" p-id="5101"></path><path d="M407.4 724.6c0 48.6-39.4 88-88 88s-88-39.4-88-88 39.4-88 88-88 88 39.4 88 88z" p-id="5102"></path><path d="M716.9 53.7v1.6c-0.4 14.2-5.6 27.1-14 36.4-8.6 9.7-20.6 15.7-33.8 15.7H354c-26 0-47.1-23.2-47.8-52.2V52c0.3-14.2 5.6-27 14-36.4C328.8 6 340.8 0 354 0h315c26 0 47.1 23.2 47.8 52.1 0.1 0.6 0.1 1.1 0.1 1.6zM407.4 724.6c0 48.6-39.4 88-88 88s-88-39.4-88-88 39.4-88 88-88 88 39.4 88 88z" p-id="5103"></path></svg>