<?xml version="1.0" standalone="no"?><!DOCTYPE svg PUBLIC "-//W3C//DTD SVG 1.1//EN" "http://www.w3.org/Graphics/SVG/1.1/DTD/svg11.dtd"><svg t="1723400916191" class="icon" viewBox="0 0 1024 1024" version="1.1" xmlns="http://www.w3.org/2000/svg" p-id="7117" xmlns:xlink="http://www.w3.org/1999/xlink" width="200" height="200"><path d="M779.5 210.7c-6.7-1-13.5-1.5-20.2-1.6H391c-5.9 0-11.7 0.4-17.5 1.2-67.8 8.3-120.6 64-120.6 130.9v484.5c0.2 72.9 61.9 131.9 138.1 132.2h336.3c43.7-34.8 118.1-109.2 144.2-139.3 11-12.6 19.3-23.6 25.9-33.8V341.3c0-66.1-51.5-121.1-117.9-130.6z m0 0" fill="#BAD4FF" p-id="7118" data-spm-anchor-id="a313x.search_index.0.i3.3a553a8191TZcs" class=""></path><path d="M422.2 198.1h183.7c23 0 41.9-19.7 41.9-43.8v-46.1c0-24.1-18.9-43.8-41.9-43.8H422.2c-23 0-41.9 19.7-41.9 43.8v46.1c0 24.1 18.9 43.8 41.9 43.8z m0-89.9h183.7v46.1H422.2v-46.1z m301.2 12.7c-11.8 0-21.3 10-21.3 22.3s9.5 22.3 21.3 22.3c16.4 0 66.2 0 66.2 104v379.6c0 6.7-27.5 16.6-41.9 16.6H623.2c-36.8 0-64.5 29.3-64.5 68.3v116.3c0 32.1 7.5 52.7 22.8 62.9 7 4.7 14.3 6.4 21.3 6.4 12.4 0 23.4-5.3 28.8-8 27.8-13.5 126.6-120.5 156.7-158.3 36.6-46 44-73.4 44-102.7V269.4c-0.1-94.4-39.7-148.5-108.9-148.5z m32.1 603.9c-37.1 46.6-126 138.3-141.9 146.4-2.9 1.6-6 2.8-9.2 3.6-1.1-2.7-3.1-9.5-3.1-24.5V733.9c0-11.4 6.9-23.7 22-23.7h124.5c4.3 0 11.8-0.7 20.6-2.5-3.7 5.2-8 10.9-12.9 17.1z m-257.1 154H333.8c-54 0-98-46.7-98-104V269.4c0-38.8 9.3-104 71.4-104 11.8 0 21.3-10 21.3-22.3s-9.5-22.3-21.3-22.3c-70.3 0-114 56.9-114 148.6v505.3c0 81.9 63.1 148.6 140.6 148.6h164.6c11.8 0 21.3-10 21.3-22.3 0-12.2-9.5-22.2-21.3-22.2z m0 0" p-id="7119" data-spm-anchor-id="a313x.search_index.0.i4.3a553a8191TZcs" class=""></path><path d="M688.8 281.1H299c-12.3 0-22.3 9.9-22.3 22 0 12.2 10 22 22.3 22h389.8c11.9-0.6 21.2-10.3 21.2-22 0-11.8-9.3-21.4-21.2-22z m0 277.8H299c-8 0-15.4 4.2-19.4 11-4 6.8-4 15.2 0 22 4 6.8 11.4 11 19.4 11h389.8c12-0.4 21.5-10.2 21.5-22s-9.5-21.5-21.5-22z m0-138.9H299c-12.3 0-22.3 9.9-22.3 22 0 12.2 10 22 22.3 22h389.8c11.9-0.6 21.2-10.3 21.2-22s-9.3-21.4-21.2-22z m0 0"  p-id="7120" data-spm-anchor-id="a313x.search_index.0.i5.3a553a8191TZcs" class=""></path></svg>
