<?xml version="1.0" standalone="no"?><!DOCTYPE svg PUBLIC "-//W3C//DTD SVG 1.1//EN" "http://www.w3.org/Graphics/SVG/1.1/DTD/svg11.dtd"><svg t="1730528686723" class="icon" viewBox="0 0 1024 1024" version="1.1" xmlns="http://www.w3.org/2000/svg" p-id="6425" xmlns:xlink="http://www.w3.org/1999/xlink" width="200" height="200"><path d="M0 0h1024v1024H0V0z"  opacity=".01" p-id="6426"></path><path d="M204.8 34.133333a34.133333 34.133333 0 0 0-34.133333 34.133334v238.933333a34.133333 34.133333 0 0 0 34.133333 34.133333h238.933333a34.133333 34.133333 0 0 0 34.133334-34.133333V68.266667a34.133333 34.133333 0 0 0-34.133334-34.133334H204.8z m514.423467 24.132267a34.133333 34.133333 0 0 0-48.264534 0l-168.96 168.96a34.133333 34.133333 0 0 0 0 48.264533l168.96 168.96a34.133333 34.133333 0 0 0 48.264534 0l168.96-168.96a34.133333 34.133333 0 0 0 0-48.264533l-168.96-168.96z" p-id="6427"></path><path d="M102.4 341.333333a34.133333 34.133333 0 0 1 34.133333-34.133333h750.933334a34.133333 34.133333 0 0 1 34.133333 34.133333v614.4a34.133333 34.133333 0 0 1-34.133333 34.133334H136.533333a34.133333 34.133333 0 0 1-34.133333-34.133334V341.333333z"  p-id="6428"></path><path d="M238.933333 512a273.066667 273.066667 0 1 0 546.133334 0v-68.266667a34.133333 34.133333 0 1 0-68.266667 0v68.266667a204.8 204.8 0 0 1-409.6 0v-68.266667a34.133333 34.133333 0 1 0-68.266667 0v68.266667z" p-id="6429"></path></svg>