<?xml version="1.0" standalone="no"?><!DOCTYPE svg PUBLIC "-//W3C//DTD SVG 1.1//EN" "http://www.w3.org/Graphics/SVG/1.1/DTD/svg11.dtd"><svg t="1741814677891" class="icon" viewBox="0 0 1024 1024" version="1.1" xmlns="http://www.w3.org/2000/svg" p-id="5154" xmlns:xlink="http://www.w3.org/1999/xlink" width="200" height="200"><path d="M514.3 500.2c14.2 12.3 26.9 27.3 40.3 40.9 11.4 11.5 22.1 24.4 34.6 33.6 6 4.4 17.4 5.3 23.2 1.2 8.1-5.6 2.4-17.1-0.8-25.2-30.4-76.3-66.3-147.5-122.8-200.5-25-23.4-52.4-41.1-82.2-52.9-34.9-13.7-70.7-16.1-107.1-10.5-26.8 4.2-52.6 12.7-77 26.3-44.4 24.6-82.4 59.4-114.9 103.8-27 36.8-51.1 75.7-65.8 122-7.7 24.3-16.3 48.6-13.9 75.5 0.5 5.6 2.8 13.2 6.3 15.5 3.3 2.2 9.6-0.1 13.8-2.5 4.4-2.5 8.3-7 11.8-11.4 24-31.3 46.9-64 72.2-93.7 12.4-14.6 28.9-24.5 44.4-34.7 8.3-5.5 14.7-0.7 17.5 10.5 1.3 5 1.8 10.3 1.9 15.5 1.5 49.8 1.9 99.6 4.5 149.2 1.7 31.2 5.1 62.5 10.4 93.1 11 64.2 27 126.6 54.2 183.8 7.3 15.4 18 28.4 27.1 42.4h8.2c11.3-7.5 15.5-18.1 10.2-33.1-0.4-1.1-0.1-2.5-0.1-3.7-0.7-32.5-1.8-65.1-1.8-97.6 0-10.4 1.6-21.1 4.1-31.1 6.2-24.3 23.6-34.1 44.1-26.4 22.9 8.5 40.8 26.5 57.8 45.7 29.6 33.4 58.2 68.1 88.2 101.1 15.8 17.4 35.2 28.3 56 34.5 12.1 3.7 18.6-5.8 14.4-20.4-0.9-3.3-2.3-6.7-4-9.5-18.2-29.7-37.4-58.6-54.6-89.1-35-62-67.2-126-73.5-203-3.6-44-4.2-88.5 12.4-130 13.8-35.4 34.3-42.2 60.9-19.3z m0 0" p-id="5155"></path><path d="M925.4 640.2c28.8-30.7 62.2-54.2 82.3-98.1V520c-9.9-14.6-20.6-9.5-31.8-2.9-28.2 16.6-56.5 33.2-85.1 48.6-60.6 32.9-123.8 45.3-188.9 42.9-15-0.6-30.1 0.3-45.1-0.2-11.5-0.4-23-2-34.5-2.8-24.3-1.8-48.7-4-73.1-5-6.8-0.3-12.3 6.1-10.6 15.8 1.3 7.8 4.5 16.7 9 21.5 9.9 10.6 20.5 21.1 32 27.7 23.7 13.5 48 25.2 72.5 36 28 12.3 35.3 29.3 35.6 67 0.3 35.6 1 70.9 6.3 105.9 4.6 30.3 10.4 59.7 24.9 84.5 5.2 9 12.2 15.2 21 12.1 9.2-3.2 9.2-13.8 9.3-24.3 0.1-8.1 0.9-16.2 2-24.2 7.2-52.3 41-74.9 76.9-53.5 27.4 16.3 39.7 48.4 50.5 82.4 2.7 8.4 4.8 15.2 13.3 15.2 8.5-0.1 11.1-6.8 13-15.5 7.7-34.7 3.7-69.2-1.4-103.5-4.6-30.9-10.4-61.4-15.1-92.2-7.3-49.7 9.8-86.2 37-115.3z m0 0M261.7 216.6c23.9 22.7 52.6 34 86.3 32.7 20.7-0.8 39.1-8.4 51.8-23.2 24.7-28.6 36.7-62.5 32.3-101.2-6.9-60.5-71.7-98-129.4-80.5-43.4 13.2-73.3 57.3-71.3 99.1-1.3 29 9.7 53.5 30.3 73.1z m0 0" p-id="5156"></path><path d="M758.2 556.3c48.5 4.5 87.8-29.1 87.3-79.4 2.9-49.4-49.7-97-105-77.7-25.4 8.9-45.1 25.5-56.6 50-13.5 28.9-12 55.6 12.8 80.4 17.1 17.3 38.6 24.6 61.5 26.7z m0 0" p-id="5157"></path></svg>