<?xml version="1.0" standalone="no"?><!DOCTYPE svg PUBLIC "-//W3C//DTD SVG 1.1//EN" "http://www.w3.org/Graphics/SVG/1.1/DTD/svg11.dtd"><svg t="1717948287017" class="icon" viewBox="0 0 1578 1024" version="1.1" xmlns="http://www.w3.org/2000/svg" p-id="9711" xmlns:xlink="http://www.w3.org/1999/xlink" width="394.5" height="256"><path d="M1496.619093 997.888H78.848427A78.762667 78.762667 0 0 1 0.08576 919.125333V78.848A78.762667 78.762667 0 0 1 78.848427 0h1417.770666a78.762667 78.762667 0 0 1 78.762667 78.805333v840.277334a78.762667 78.762667 0 0 1-78.762667 78.762666zM78.848427 45.056a33.749333 33.749333 0 0 0-33.749334 33.792v840.277333a33.706667 33.706667 0 0 0 33.749334 33.749334h1417.770666a33.749333 33.749333 0 0 0 33.749334-33.706667V78.805333a33.749333 33.749333 0 0 0-33.749334-33.792H78.848427z" p-id="9712" fill="#24292e"></path><path d="M1417.856427 997.888H157.611093a22.528 22.528 0 0 1-22.485333-22.485333 112.512 112.512 0 0 0-112.597333-112.512 22.485333 22.485333 0 0 1-22.442667-22.528V157.610667a22.485333 22.485333 0 0 1 22.485333-22.485334A112.512 112.512 0 0 0 135.168427 22.485333a22.485333 22.485333 0 0 1 22.442666-22.442666H1417.899093a22.485333 22.485333 0 0 1 22.485334 22.528 112.597333 112.597333 0 0 0 112.597333 112.554666 22.485333 22.485333 0 0 1 22.442667 22.485334v682.752a22.528 22.528 0 0 1-22.485334 22.528 112.469333 112.469333 0 0 0-112.554666 112.512 22.528 22.528 0 0 1-22.485334 22.485333zM178.51776 952.874667H1396.992427a157.525333 157.525333 0 0 1 133.418666-133.418667V178.474667a157.525333 157.525333 0 0 1-133.418666-133.418667H178.432427a157.525333 157.525333 0 0 1-133.376 133.418667v640.938666a157.525333 157.525333 0 0 1 133.418666 133.418667v0.042667z" p-id="9713" fill="#24292e"></path><path d="M889.899093 997.888a22.528 22.528 0 0 1-22.485333-22.485333 79.701333 79.701333 0 0 0-159.36 0 22.528 22.528 0 0 1-45.013333 0 124.672 124.672 0 0 1 249.386666 0 22.528 22.528 0 0 1-22.528 22.485333zM787.712427 147.456A124.885333 124.885333 0 0 1 663.040427 22.528a22.528 22.528 0 0 1 45.013333 0 79.658667 79.658667 0 0 0 159.36 0 22.528 22.528 0 0 1 45.013333 0 124.885333 124.885333 0 0 1-124.672 124.928zM1368.619093 719.786667a22.442667 22.442667 0 0 1-9.898666-2.261334l-396.757334-198.485333a22.528 22.528 0 0 1 0-40.064l396.757334-198.485333a22.528 22.528 0 0 1 32.426666 20.266666v396.544a22.485333 22.485333 0 0 1-22.528 22.485334z m-346.368-220.8l323.84 161.834666V337.152l-323.84 161.792zM180.139093 586.496a66.133333 66.133333 0 0 1-17.749333-130.090667l1035.221333-292.522666a58.709333 58.709333 0 0 1 32.597334 112.512L199.25376 583.808a68.821333 68.821333 0 0 1-19.157333 2.688z m1033.216-380.074667a11.434667 11.434667 0 0 0-3.84 0L174.29376 498.944a21.418667 21.418667 0 0 0-10.752 33.962667 22.528 22.528 0 0 0 22.656 6.997333L1216.939093 233.642667a13.952 13.952 0 0 0 9.429334-17.066667 14.165333 14.165333 0 0 0-13.013334-10.154667z" p-id="9714"></path></svg>