<?xml version="1.0" standalone="no"?><!DOCTYPE svg PUBLIC "-//W3C//DTD SVG 1.1//EN" "http://www.w3.org/Graphics/SVG/1.1/DTD/svg11.dtd"><svg t="1718130376269" class="icon" viewBox="0 0 1024 1024" version="1.1" xmlns="http://www.w3.org/2000/svg" p-id="4283" xmlns:xlink="http://www.w3.org/1999/xlink" width="256" height="256"><path d="M796.181514 709.448469a65.92 65.92 0 1 0 30.298406-128.311309 65.92 65.92 0 1 0-30.298406 128.311309Z" fill="#1A56D2" p-id="4284"></path><path d="M1015.75 571.23c0-16.77 4.62-45.64-20.39-56.92l-151.82-92.95c-15.29-9.9-40.61-9.9-55.9 0l-163.08 94.75c-13.75 8.9-18.05 36.48-18.05 53.25V723.7c0 16.77 1.55 38.41 15.3 47.31L793.54 871.7c15.29 9.9 31.62 2.78 46.92-7.12l154.9-91.14c13.75-8.9 20.73-35.81 20.73-52.58l-0.34-149.63zM811.3 747.19c-57.65 0-104.38-45.66-104.38-101.99s46.73-101.99 104.38-101.99 104.38 45.66 104.38 101.99c-0.01 56.33-46.74 101.99-104.38 101.99z" fill="#1A56D2" p-id="4285"></path><path d="M650.35 879.21l-114.03-66.86c-19.29-12.49-21.46-42.85-21.46-66.37V562.97c-112.6 35.87-204.73-30.06-204.73-30.06-137.49 87.11-226.6 16.05-226.6 16.05s-1.08 283.1 0 345.21c1.08 62.11 56.97 63.97 56.97 63.97s572.01 4.58 622.48 0c5.91-0.54 11.03-1.8 15.49-3.61L651.53 880.1c-0.42-0.28-0.8-0.59-1.18-0.89zM313.19 437.78s47.88 67.62 135.29 65.33c29.02-0.76 53.09-7.84 72.31-16.96 3.95-13.45 10.14-25.43 19.37-31.41L768.98 321.8c21.45-13.89 56.97-13.89 78.43 0l24.13 14.78c0.97-29.41-3.89-50.58-3.89-50.58L753.52 36.77l-619.2 0.08S27.58 264.7 20.19 302.53s-8.44 153.58 106.54 190.22c114.97 36.65 186.46-54.97 186.46-54.97z"  p-id="4286"></path></svg>