<?xml version="1.0" standalone="no"?><!DOCTYPE svg PUBLIC "-//W3C//DTD SVG 1.1//EN" "http://www.w3.org/Graphics/SVG/1.1/DTD/svg11.dtd"><svg t="1741370404507" class="icon" viewBox="0 0 1076 1024" version="1.1" xmlns="http://www.w3.org/2000/svg" p-id="6007" xmlns:xlink="http://www.w3.org/1999/xlink" width="210.15625" height="200"><path d="M1052.587 316.373l-60.16-60.053c-16.64-16.64-46.294-13.973-66.24 6.08L473.6 714.987c-20.053 19.946-22.72 49.6-6.08 66.24l60.053 60.16c16.64 16.533 46.294 13.866 66.347-6.187l452.48-452.48c20.053-20.053 22.827-49.707 6.187-66.347z m-479.36 580.8l2.133 1.814L387.093 998.4H768c28.373 0 51.2-22.933 51.2-51.2V656L586.453 887.68c-4.16 4.053-8.746 6.4-13.226 9.493zM408.107 755.52c3.733-9.92 8.96-19.627 17.386-27.947L819.2 335.68V51.2C819.2 22.933 796.267 0 768 0H51.2C22.933 0 0 22.933 0 51.2v895.893c0 28.374 22.933 51.2 51.2 51.2h253.227L405.76 753.387l2.347 2.133zM128 76.8h537.6c28.373 0 51.2 14.08 51.2 31.573 0 17.494-22.933 31.467-51.2 31.467H128c-28.267 0-51.2-14.08-51.2-31.467C76.8 90.88 99.733 76.8 128 76.8z m0 168.64h537.6c28.373 0 51.2 14.827 51.2 33.067 0 18.24-22.933 33.066-51.2 33.066H128c-28.267 0-51.2-14.826-51.2-33.066 0-18.24 22.933-33.067 51.2-33.067z m0 240.747c-28.267 0-51.2-15.36-51.2-34.134S99.733 417.92 128 417.92h332.8c28.267 0 51.2 15.253 51.2 34.133s-22.933 34.134-51.2 34.134H128z m289.28 298.666l-96.64 222.827 215.147-109.653L417.28 784.853z"  p-id="6008"></path></svg>