<?xml version="1.0" standalone="no"?><!DOCTYPE svg PUBLIC "-//W3C//DTD SVG 1.1//EN" "http://www.w3.org/Graphics/SVG/1.1/DTD/svg11.dtd"><svg t="1722831583224" class="icon" viewBox="0 0 1024 1024" version="1.1" xmlns="http://www.w3.org/2000/svg" p-id="4278" xmlns:xlink="http://www.w3.org/1999/xlink" width="256" height="256"><path d="M682.58096 552.232034a321.142483 321.142483 0 0 0 94.788521-228.720478 320.183085 320.183085 0 0 0-94.788521-228.720477A321.718122 321.718122 0 0 0 453.284844 0.002558a320.438925 320.438925 0 0 0-228.784438 94.788521 321.142483 321.142483 0 0 0-94.78852 228.720477c0 86.281858 33.514969 168.022566 94.78852 228.720478a326.195312 326.195312 0 0 0 63.000467 49.377016 409.343137 409.343137 0 0 0-127.727851 87.433136A413.372609 413.372609 0 0 0 38.313238 983.065686c0 22.130113 18.164602 40.294715 40.294716 40.294715a38.247999 38.247999 0 0 0 28.39818-11.896535 37.672361 37.672361 0 0 0 11.320896-28.39818 335.533453 335.533453 0 0 1 334.893854-334.893854c2.814234 0 5.116789 0 7.355384-0.575639a323.764838 323.764838 0 0 0 222.004692-95.364159z m-229.296116 14.19909a243.239367 243.239367 0 0 1-242.919568-242.919568c0-133.931958 108.98761-242.919568 242.919568-242.919567s242.919568 108.98761 242.919568 242.919567a243.175407 243.175407 0 0 1-242.919568 242.919568z m282.638644 110.138888c0 22.130113 18.164602 40.294715 40.294715 40.294715h169.109884c22.130113 0 40.294715-18.164602 40.294715-40.294715a40.422635 40.422635 0 0 0-40.294715-40.294715h-169.109884a40.102835 40.102835 0 0 0-40.294715 40.294715z m208.89292 112.953122h-225.330605a40.422635 40.422635 0 0 0-40.294715 40.294715c0 22.130113 18.164602 40.294715 40.294715 40.294715h225.330605c22.130113 0 40.294715-18.164602 40.294715-40.294715a40.422635 40.422635 0 0 0-40.294715-40.294715z m-357.919406 0h1.471077a40.422635 40.422635 0 0 0-40.294715 40.294715c0 22.130113 17.588963 40.294715 40.294715 40.294715h-1.471077c22.130113 0 40.294715-18.164602 40.294715-40.294715a40.102835 40.102835 0 0 0-40.294715-40.294715z m0 152.672198h1.471077a40.742434 40.742434 0 0 0-40.294715 39.719077c0 10.809217 3.965512 20.978836 11.320896 28.973819a41.254113 41.254113 0 0 0 28.39818 12.472173h-0.895438a40.550555 40.550555 0 1 0 0-81.165069z m357.919406-0.575638c-66.39034 0.575639-137.897469 0.575639-225.330605 0a40.422635 40.422635 0 0 0-40.294715 40.294715c0 10.809217 3.965512 20.978836 11.896535 28.39818a38.18404 38.18404 0 0 0 28.39818 11.896535h101.632225c43.108949 0 83.979303 0 124.274018-0.575639 22.130113 0 40.294715-18.164602 40.294716-40.294715a41.254113 41.254113 0 0 0-40.870354-39.719076z m0 0" fill="#2A9FF6" p-id="4279"></path></svg>