<?xml version="1.0" standalone="no"?><!DOCTYPE svg PUBLIC "-//W3C//DTD SVG 1.1//EN" "http://www.w3.org/Graphics/SVG/1.1/DTD/svg11.dtd"><svg t="1741378137295" class="icon" viewBox="0 0 1280 1024" version="1.1" xmlns="http://www.w3.org/2000/svg" p-id="7832" xmlns:xlink="http://www.w3.org/1999/xlink" width="250" height="200"><path d="M1280 574.2c0 35.34-28.66 64.04-62.2 64.04H1152a63.918 63.918 0 0 1-48.62-22.38l-48.78 227.8c-6.5 30.24-34.5 50.18-64.6 50.56-30.9-1-56.74-23.94-61.3-54.5L892.6 601.4l-61.56 369.2C824.2 1001.4 799 1024 767.8 1024c-31.56-0.376-58.68-23.68-63.1-54.94L638.2 516.6l-64.66 452.4c-2.54 31.4-29.34 54.6-60.94 55l-0.75-0.084c-31.28 0-57.8-22.54-62.94-53.4L387.4 601.2l-36.04 240.2c-4.562 30.56-30.38 53.5-61.28 54.5-31.88-0.562-58.1-20.3-64.58-50.56L176.62 617.6A63.74 63.74 0 0 1 128 640H62.2C28.66 640 0 611.4 0 574.2S28.66 512 62.2 512h17.878l49.4-148.24c11.09-33.16 47.96-51.86 82.32-40.26 21.72 7.328 36.78 27.34 41.58 49.76l21.7 101.44 43.92-292.8c4.654-31.02 31.3-52.2 62.68-52.2 31.28 0 58.52 22.66 63.66 53.52l60 360 69.54-486.6c5.034-35.24 38.22-60.42 74.86-53.96 27.88 4.916 48.32 29.3 52.32 57.34l69.04 483.2 60-360C838 150.64 864.8 128 896 128c31.36 0 58.6 23.24 63.26 54.26l43.88 292.4 22.28-104.1c7.21-33.52 40.08-56.44 75.86-49.18 23.1 4.69 41.06 23.18 48.52 45.54L1198.16 512h17.88c35.36 0 63.96 28.6 63.96 62.2z" p-id="7833"></path></svg>