<?xml version="1.0" standalone="no"?><!DOCTYPE svg PUBLIC "-//W3C//DTD SVG 1.1//EN" "http://www.w3.org/Graphics/SVG/1.1/DTD/svg11.dtd"><svg t="1739979836672" class="icon" viewBox="0 0 1024 1024" version="1.1" xmlns="http://www.w3.org/2000/svg" p-id="5008" xmlns:xlink="http://www.w3.org/1999/xlink" width="200" height="200"><path d="M937.512309 839.540368c-7.070415 31.85275-40.684384 35.38735-40.684384 35.38735s-698.970098 1.772165-773.284263 0c-46.000879-10.607448-37.149784-44.233579-37.149784-44.233579s3.540681-493.678709 0-539.669857c5.293385-40.703845 37.149784-46.005744 37.149784-46.005744l184.038789 0c30.06599-74.32876 76.08633-95.547304 76.08633-95.547304L640.238622 149.471233c54.861704 15.92151 84.932559 106.165699 84.932559 106.165699s95.423241 1.60553 162.805649 0c40.689249 3.5346 49.536695 37.144919 49.536695 37.144919S939.289339 802.393016 937.512309 839.540368L937.512309 839.540368 937.512309 839.540368zM514.422204 356.29639c-122.909435 0-222.527732 99.637758-222.527732 222.526515 0 122.909435 99.618297 222.527732 222.527732 222.527732 122.894839 0 222.532597-99.613432 222.532597-222.527732C736.954801 455.928067 637.317043 356.29639 514.422204 356.29639L514.422204 356.29639 514.422204 356.29639zM866.729095 335.256644l-79.625794 0L787.1033 414.883655l79.625794 0L866.729095 335.256644 866.729095 335.256644 866.729095 335.256644zM548.222268 724.518709l-70.764969 0 0-106.165699-106.170564 0 0-70.760104 106.170564 0 0-106.170564 70.764969 0 0 106.170564 106.165699 0 0 70.760104-106.165699 0L548.222268 724.518709 548.222268 724.518709 548.222268 724.518709zM548.222268 724.518709"  p-id="5009"></path></svg>